
<svg xmlns="http://www.w3.org/2000/svg" width="520" height="180">
<rect width="520" height="180" fill="white"/>
<text x="90" y="25" font-size="16">Series</text>
<circle cx="80" cy="90" r="16" stroke="#111" fill="none"/>
<circle cx="180" cy="90" r="16" stroke="#111" fill="none"/>
<circle cx="280" cy="90" r="16" stroke="#111" fill="none"/>
<line x1="20" y1="90" x2="64" y2="90" stroke="#111" stroke-width="3"/>
<line x1="96" y1="90" x2="164" y2="90" stroke="#111" stroke-width="3"/>
<line x1="196" y1="90" x2="264" y2="90" stroke="#111" stroke-width="3"/>
<line x1="296" y1="90" x2="340" y2="90" stroke="#111" stroke-width="3"/>

<text x="390" y="25" font-size="16">Parallel</text>
<line x1="390" y1="45" x2="390" y2="140" stroke="#111" stroke-width="3"/>
<line x1="490" y1="45" x2="490" y2="140" stroke="#111" stroke-width="3"/>
<circle cx="440" cy="65" r="14" stroke="#111" fill="none"/>
<circle cx="440" cy="105" r="14" stroke="#111" fill="none"/>
<line x1="390" y1="65" x2="426" y2="65" stroke="#111" stroke-width="3"/>
<line x1="454" y1="65" x2="490" y2="65" stroke="#111" stroke-width="3"/>
<line x1="390" y1="105" x2="426" y2="105" stroke="#111" stroke-width="3"/>
<line x1="454" y1="105" x2="490" y2="105" stroke="#111" stroke-width="3"/>
</svg>
